<svg viewBox="0 0 128 128" xml:space="preserve" xmlns="http://www.w3.org/2000/svg" fill-rule="evenodd" clip-rule="evenodd" stroke-linejoin="round" stroke-miterlimit="1.41421"><path d="M.369.21h128v128h-128z" fill="none"></path><path d="M104.369 95h-80c-2.105-.132-3.004-3.811 0-4h80l.25.016c1.952.372 2.674 3.8-.25 3.984Zm0-20.263h-80c-2.049-.129-3.087-3.806 0-4h80l.25.015c1.952.373 2.674 3.801-.25 3.985Zm0-20.264h-80c-2.079-.13-3.004-3.811 0-4h80l.25.016c1.977.377 2.599 3.805-.25 3.984Zm0-20.263h-80c-1.728-.109-1.805-.789-1.965-1.625-.22-1.155.736-2.298 1.965-2.375h80l.25.016c1.701.324 1.692 1.008 1.746 1.858.068 1.084-.852 2.054-1.996 2.126Z" fill-rule="nonzero" fill="#37dfe8" class="fill-000000"></path></svg>